<svg xmlns="http://www.w3.org/2000/svg" width="24" height="24" viewBox="0 0 24 24"><path d="M5 22h-5v-12h5v12zm17.615-8.412c-.857-.115-.578-.734.031-.922.521-.16 1.354-.5 1.354-1.51 0-.672-.5-1.562-2.271-1.49-1.228.05-3.666-.198-4.979-.885.906-3.656.688-8.781-1.688-8.781-1.594 0-1.896 1.807-2.375 3.469-1.221 4.242-3.312 6.017-5.687 6.885v10.878c4.382.701 6.345 2.768 10.505 2.768 3.198 0 4.852-1.735 4.852-2.666 0-.335-.272-.573-.96-.626-.811-.062-.734-.812.031-.953 1.268-.234 1.826-.914 1.826-1.543 0-.529-.396-1.022-1.098-1.181-.837-.189-.664-.757.031-.812 1.133-.09 1.688-.764 1.688-1.41 0-.565-.424-1.109-1.26-1.221z"/></svg>