<?xml version="1.0" encoding="UTF-8"?>
<svg xmlns="http://www.w3.org/2000/svg" xmlns:xlink="http://www.w3.org/1999/xlink" width="48px" height="48px" viewBox="0 0 48 48" version="1.1">
<g id="surface1">
<path style=" stroke:none;fill-rule:nonzero;fill:rgb(0%,0%,0%);fill-opacity:1;" d="M 26.433594 0.613281 C 24.761719 0.96875 23.273438 2.195312 22.535156 3.792969 C 22.152344 4.621094 22.023438 5.226562 22.023438 6.15625 C 22.023438 8.746094 23.792969 11.011719 26.34375 11.644531 C 27.167969 11.859375 28.742188 11.785156 29.550781 11.5 C 30.886719 11.03125 32.136719 9.890625 32.753906 8.601562 C 33.515625 6.992188 33.496094 5.21875 32.707031 3.589844 C 32.238281 2.632812 31.160156 1.558594 30.195312 1.082031 C 29 0.492188 27.710938 0.335938 26.433594 0.613281 Z M 26.433594 0.613281 "/>
<path style=" stroke:none;fill-rule:nonzero;fill:rgb(0%,0%,0%);fill-opacity:1;" d="M 17.222656 10.535156 C 16.925781 10.609375 16.53125 10.746094 16.347656 10.847656 C 15.886719 11.078125 9.324219 17.699219 8.714844 18.535156 C 7.8125 19.777344 7.199219 21.285156 6.875 23.019531 C 6.738281 23.773438 6.722656 24.953125 6.683594 33.980469 C 6.648438 45.300781 6.617188 44.722656 7.308594 45.777344 C 8.660156 47.878906 11.558594 48.113281 13.285156 46.292969 C 13.855469 45.6875 14.167969 45.035156 14.296875 44.1875 C 14.351562 43.792969 14.390625 40.363281 14.390625 35.363281 L 14.390625 27.179688 L 17.101562 24.464844 L 19.8125 21.753906 L 19.8125 26.863281 L 22.140625 27.996094 C 27.988281 30.847656 27.816406 30.773438 28.761719 30.496094 C 30.425781 30.007812 30.933594 27.753906 29.632812 26.617188 C 29.46875 26.46875 28.226562 25.816406 26.878906 25.164062 L 24.429688 23.976562 L 24.382812 20.152344 C 24.347656 15.800781 24.300781 15.488281 23.566406 13.984375 C 23.253906 13.347656 23.015625 13.035156 22.296875 12.320312 C 21.359375 11.371094 20.878906 11.050781 19.917969 10.699219 C 19.144531 10.414062 17.96875 10.339844 17.222656 10.535156 Z M 17.222656 10.535156 "/>
<path style=" stroke:none;fill-rule:nonzero;fill:rgb(0%,0%,0%);fill-opacity:1;" d="M 33.402344 12.613281 C 33.039062 12.824219 33.324219 13.523438 33.773438 13.523438 C 33.976562 13.523438 34.25 13.210938 34.25 12.960938 C 34.25 12.613281 33.746094 12.410156 33.402344 12.613281 Z M 33.402344 12.613281 "/>
<path style=" stroke:none;fill-rule:nonzero;fill:rgb(0%,0%,0%);fill-opacity:1;" d="M 31.640625 12.75 C 31.390625 12.988281 31.480469 13.449219 31.796875 13.558594 C 32.265625 13.726562 32.644531 13.320312 32.410156 12.894531 C 32.238281 12.605469 31.859375 12.519531 31.640625 12.75 Z M 31.640625 12.75 "/>
<path style=" stroke:none;fill-rule:nonzero;fill:rgb(0%,0%,0%);fill-opacity:1;" d="M 34.765625 13.726562 C 34.574219 13.992188 34.582031 14.195312 34.785156 14.375 C 35.125 14.691406 35.628906 14.480469 35.628906 14.027344 C 35.628906 13.550781 35.035156 13.347656 34.765625 13.726562 Z M 34.765625 13.726562 "/>
<path style=" stroke:none;fill-rule:nonzero;fill:rgb(0%,0%,0%);fill-opacity:1;" d="M 35.339844 15.308594 C 35.199219 15.378906 35.113281 15.511719 35.097656 15.703125 C 35.042969 16.300781 35.90625 16.464844 36.050781 15.875 C 36.164062 15.417969 35.769531 15.09375 35.339844 15.308594 Z M 35.339844 15.308594 "/>
<path style=" stroke:none;fill-rule:nonzero;fill:rgb(0%,0%,0%);fill-opacity:1;" d="M 26.988281 20.066406 L 26.988281 23.039062 L 31.804688 25.355469 L 36.625 27.683594 L 41.332031 27.683594 L 41.332031 17.109375 L 26.988281 17.109375 Z M 26.988281 20.066406 "/>
</g>
</svg>
